<mxfile host="app.diagrams.net" modified="2021-08-10T12:34:08.337Z" agent="5.0 (Windows NT 10.0; Win64; x64) AppleWebKit/537.36 (KHTML, like Gecko) Chrome/92.0.4515.131 Safari/537.36" etag="SFIL3bQB-lBGkvSy4YiZ" version="14.9.5" type="github">
  <diagram id="wLTe-n7V8-bOQC7yIqFk" name="Page-1">
    <mxGraphModel dx="854" dy="411" grid="1" gridSize="10" guides="1" tooltips="1" connect="1" arrows="1" fold="1" page="1" pageScale="1" pageWidth="850" pageHeight="1100" math="0" shadow="0">
      <root>
        <mxCell id="0" />
        <mxCell id="1" parent="0" />
        <mxCell id="CTJG808HQMyNMA1LAgH--1" value="view others&lt;br&gt;&amp;nbsp;item" style="shape=ellipse;html=1;dashed=0;whitespace=wrap;aspect=fixed;perimeter=ellipsePerimeter;" vertex="1" parent="1">
          <mxGeometry x="290" y="220" width="80" height="80" as="geometry" />
        </mxCell>
        <mxCell id="CTJG808HQMyNMA1LAgH--2" value="cancel" style="shape=ellipse;html=1;dashed=0;whitespace=wrap;aspect=fixed;perimeter=ellipsePerimeter;" vertex="1" parent="1">
          <mxGeometry x="650" y="90" width="80" height="80" as="geometry" />
        </mxCell>
        <mxCell id="CTJG808HQMyNMA1LAgH--3" value="confirm item" style="shape=ellipse;html=1;dashed=0;whitespace=wrap;aspect=fixed;perimeter=ellipsePerimeter;" vertex="1" parent="1">
          <mxGeometry x="470" y="80" width="80" height="80" as="geometry" />
        </mxCell>
        <mxCell id="CTJG808HQMyNMA1LAgH--4" value="select all item" style="shape=ellipse;html=1;dashed=0;whitespace=wrap;aspect=fixed;perimeter=ellipsePerimeter;" vertex="1" parent="1">
          <mxGeometry x="340" y="80" width="80" height="80" as="geometry" />
        </mxCell>
        <mxCell id="CTJG808HQMyNMA1LAgH--5" value="&amp;nbsp; booking&lt;br&gt;details" style="shape=ellipse;html=1;dashed=0;whitespace=wrap;aspect=fixed;perimeter=ellipsePerimeter;" vertex="1" parent="1">
          <mxGeometry x="210" y="80" width="80" height="80" as="geometry" />
        </mxCell>
        <mxCell id="CTJG808HQMyNMA1LAgH--6" value="Manager" style="html=1;dashed=0;whitespace=wrap;" vertex="1" parent="1">
          <mxGeometry x="310" y="350" width="100" height="50" as="geometry" />
        </mxCell>
        <mxCell id="CTJG808HQMyNMA1LAgH--7" value="Employee" style="html=1;dashed=0;whitespace=wrap;" vertex="1" parent="1">
          <mxGeometry x="610" y="230" width="100" height="50" as="geometry" />
        </mxCell>
        <mxCell id="CTJG808HQMyNMA1LAgH--8" value="Admin" style="html=1;dashed=0;whitespace=wrap;" vertex="1" parent="1">
          <mxGeometry x="60" y="200" width="100" height="50" as="geometry" />
        </mxCell>
        <mxCell id="CTJG808HQMyNMA1LAgH--9" value="Customer&amp;nbsp;" style="html=1;dashed=0;whitespace=wrap;" vertex="1" parent="1">
          <mxGeometry x="60" y="105" width="100" height="50" as="geometry" />
        </mxCell>
      </root>
    </mxGraphModel>
  </diagram>
</mxfile>
